999
Dxf file generated by netDxf https://github.com/haplokuon/netDxf, Copyright(C) 2009-2019 Daniel Carvajal, Licensed under LGPL
0
SECTION
2
HEADER
9
$ACADVER
1
AC1027
9
$DWGCODEPAGE
3
ANSI_1200
9
$LASTSAVEDBY
1
pauls
9
$HANDSEED
5
71
9
$ANGBASE
50
0.0
9
$ANGDIR
70
0
9
$ATTMODE
70
1
9
$AUNITS
70
0
9
$AUPREC
70
0
9
$CECOLOR
62
256
9
$CELTSCALE
40
1.0
9
$CELTYPE
6
ByLayer
9
$CELWEIGHT
370
-1
9
$CLAYER
8
0
9
$CMLJUST
70
0
9
$CMLSCALE
40
20.0
9
$CMLSTYLE
2
Standard
9
$DIMSTYLE
2
Standard
9
$TEXTSIZE
40
2.5
9
$TEXTSTYLE
7
Standard
9
$LUNITS
70
2
9
$LUPREC
70
4
9
$MIRRTEXT
70
0
9
$EXTNAMES
290
1
9
$INSBASE
10
0.0
20
0.0
30
0.0
9
$INSUNITS
70
0
9
$LTSCALE
40
1.0
9
$LWDISPLAY
290
0
9
$PDMODE
70
0
9
$PDSIZE
40
0.0
9
$PLINEGEN
70
0
9
$PSLTSCALE
70
1
9
$TDCREATE
40
2459269.92313884
9
$TDUCREATE
40
2459270.13147218
9
$TDUPDATE
40
2459269.92313884
9
$TDUUPDATE
40
2459270.13147218
9
$TDINDWG
40
0.0
9
$UCSORG
10
0.0
20
0.0
30
0.0
9
$UCSXDIR
10
1.0
20
0.0
30
0.0
9
$UCSYDIR
10
0.0
20
1.0
30
0.0
9
$DIMADEC
70
0
9
$DIMALT
70
0
9
$DIMALTD
70
2
9
$DIMALTF
40
25.4
9
$DIMALTRND
40
0.0
9
$DIMALTTD
70
2
9
$DIMALTTZ
70
0
9
$DIMALTU
70
2
9
$DIMALTZ
70
0
9
$DIMAPOST
1

9
$DIMATFIT
70
3
9
$DIMAUNIT
70
0
9
$DIMASZ
40
0.18
9
$DIMAZIN
70
0
9
$DIMSAH
70
0
9
$DIMBLK
1

9
$DIMLDRBLK
1

9
$DIMCEN
40
0.09
9
$DIMCLRD
70
0
9
$DIMCLRE
70
0
9
$DIMCLRT
70
0
9
$DIMDEC
70
4
9
$DIMDLE
40
0.0
9
$DIMDLI
40
0.38
9
$DIMDSEP
70
46
9
$DIMEXE
40
0.18
9
$DIMEXO
40
0.0625
9
$DIMFXLON
70
0
9
$DIMFXL
40
1.0
9
$DIMGAP
40
0.09
9
$DIMJUST
70
0
9
$DIMLFAC
40
1.0
9
$DIMLUNIT
70
2
9
$DIMLWD
70
-2
9
$DIMLWE
70
-2
9
$DIMPOST
1

9
$DIMRND
40
0.0
9
$DIMSCALE
40
1.0
9
$DIMSD1
70
0
9
$DIMSD2
70
0
9
$DIMSE1
70
0
9
$DIMSE2
70
0
9
$DIMSOXD
70
1
9
$DIMTAD
70
0
9
$DIMTDEC
70
4
9
$DIMTFAC
40
1.0
9
$DIMTIH
70
0
9
$DIMTIX
70
0
9
$DIMTM
40
0.0
9
$DIMTMOVE
70
0
9
$DIMTOFL
70
0
9
$DIMTOH
70
0
9
$DIMTOL
70
0
9
$DIMLIM
70
0
9
$DIMTOLJ
70
1
9
$DIMTP
40
0.0
9
$DIMTXT
40
0.18
9
$DIMTXTDIRECTION
70
0
9
$DIMTZIN
70
0
9
$DIMZIN
70
0
9
$DIMFRAC
70
0
9
$DIMLTYPE
6
ByBlock
9
$DIMLTEX1
6
ByBlock
9
$DIMLTEX2
6
ByBlock
0
ENDSEC
0
SECTION
2
CLASSES
0
CLASS
1
RASTERVARIABLES
2
AcDbRasterVariables
3
ISM
90
0
91
1
280
0
281
0
0
ENDSEC
0
SECTION
2
TABLES
0
TABLE
2
APPID
5
4
330
0
100
AcDbSymbolTable
70
4
0
APPID
5
18
330
4
100
AcDbSymbolTableRecord
100
AcDbRegAppTableRecord
2
ACAD
70
0
0
APPID
5
66
330
4
100
AcDbSymbolTableRecord
100
AcDbRegAppTableRecord
2
AcCmTransparency
70
0
0
APPID
5
67
330
4
100
AcDbSymbolTableRecord
100
AcDbRegAppTableRecord
2
GradientColor1ACI
70
0
0
APPID
5
68
330
4
100
AcDbSymbolTableRecord
100
AcDbRegAppTableRecord
2
GradientColor2ACI
70
0
0
ENDTAB
0
TABLE
2
VPORT
5
1
330
0
100
AcDbSymbolTable
70
1
0
VPORT
5
2
330
1
100
AcDbSymbolTableRecord
100
AcDbViewportTableRecord
2
*Active
70
0
10
0.0
20
0.0
11
1.0
21
1.0
12
0.0
22
0.0
13
0.0
23
0.0
14
0.5
24
0.5
15
10.0
25
10.0
16
0.0
26
0.0
36
1.0
17
0.0
27
0.0
37
0.0
40
10.0
41
1.0
75
0
76
1
0
ENDTAB
0
TABLE
2
LTYPE
5
6
330
0
100
AcDbSymbolTable
70
3
0
LTYPE
5
14
330
6
100
AcDbSymbolTableRecord
100
AcDbLinetypeTableRecord
2
Continuous
70
0
3
Solid line
72
65
73
0
40
0.0
0
LTYPE
5
15
330
6
100
AcDbSymbolTableRecord
100
AcDbLinetypeTableRecord
2
ByLayer
70
0
3

72
65
73
0
40
0.0
0
LTYPE
5
16
330
6
100
AcDbSymbolTableRecord
100
AcDbLinetypeTableRecord
2
ByBlock
70
0
3

72
65
73
0
40
0.0
0
ENDTAB
0
TABLE
2
LAYER
5
5
330
0
100
AcDbSymbolTable
70
1
0
LAYER
5
13
330
5
100
AcDbSymbolTableRecord
100
AcDbLayerTableRecord
2
0
70
0
62
7
6
Continuous
290
1
370
-3
390
0
0
ENDTAB
0
TABLE
2
STYLE
5
7
330
0
100
AcDbSymbolTable
70
1
0
STYLE
5
17
330
7
100
AcDbSymbolTableRecord
100
AcDbTextStyleTableRecord
2
Standard
3
simplex.shx
70
0
71
0
40
0.0
41
1.0
42
0.0
50
0.0
0
ENDTAB
0
TABLE
2
DIMSTYLE
5
9
330
0
100
AcDbSymbolTable
70
1
100
AcDbDimStyleTable
0
DIMSTYLE
105
19
330
9
100
AcDbSymbolTableRecord
100
AcDbDimStyleTableRecord
2
Standard
3

4

40
1.0
41
0.18
42
0.0625
43
0.38
44
0.18
45
0.0
46
0.0
47
0.0
49
1.0
70
0
71
0
72
0
73
0
74
0
75
0
76
0
77
0
78
0
79
0
140
0.18
141
0.09
143
25.4
144
1.0
146
1.0
147
0.09
148
0.0
170
0
171
2
172
0
174
0
175
1
176
0
177
0
178
0
179
0
271
4
272
4
273
2
274
2
275
0
276
0
277
2
278
46
279
0
280
0
281
0
282
0
283
1
284
0
285
0
286
0
289
3
290
0
294
0
340
17
173
0
345
16
346
16
347
16
371
-2
372
-2
0
ENDTAB
0
TABLE
2
VIEW
5
3
330
0
100
AcDbSymbolTable
70
0
0
ENDTAB
0
TABLE
2
UCS
5
B
330
0
100
AcDbSymbolTable
70
0
0
ENDTAB
0
TABLE
2
BLOCK_RECORD
5
C
330
0
100
AcDbSymbolTable
70
2
0
BLOCK_RECORD
5
1B
330
C
100
AcDbSymbolTableRecord
100
AcDbBlockTableRecord
2
*Model_Space
340
1F
0
BLOCK_RECORD
5
61
330
C
100
AcDbSymbolTableRecord
100
AcDbBlockTableRecord
2
*Paper_Space
340
65
0
ENDTAB
0
ENDSEC
0
SECTION
2
BLOCKS
0
BLOCK
5
1D
330
1B
100
AcDbEntity
67
0
8
0
100
AcDbBlockBegin
2
*Model_Space
70
0
10
0.0
20
0.0
30
0.0
3
*Model_Space
0
ENDBLK
5
1C
330
1B
100
AcDbEntity
8
0
100
AcDbBlockEnd
0
BLOCK
5
63
330
61
100
AcDbEntity
67
1
8
0
100
AcDbBlockBegin
2
*Paper_Space
70
0
10
0.0
20
0.0
30
0.0
3
*Paper_Space
0
ENDBLK
5
62
330
61
100
AcDbEntity
8
0
100
AcDbBlockEnd
0
ENDSEC
0
SECTION
2
ENTITIES
0
POLYLINE
5
24
330
1B
100
AcDbEntity
67
0
8
0
62
256
6
ByLayer
370
-1
48
1.0
60
0
100
AcDb3dPolyline
10
0.0
20
0.0
30
0.0
70
8
75
0
210
0.0
220
0.0
230
1.0
0
VERTEX
5
21
100
AcDbEntity
8
0
62
256
100
AcDbVertex
100
AcDb3dPolylineVertex
10
1296205.453
20
960387.001
30
0.0
70
32
0
VERTEX
5
22
100
AcDbEntity
8
0
62
256
100
AcDbVertex
100
AcDb3dPolylineVertex
10
1296158.56899962
20
960551.898954598
30
0.0
70
32
0
SEQEND
5
23
100
AcDbEntity
8
0
0
ARC
5
25
330
1B
100
AcDbEntity
67
0
8
0
62
256
6
ByLayer
370
-1
48
1.0
60
0
100
AcDbCircle
39
0.0
10
1288798.02020154
20
958505.921641545
30
0.0
40
7639.43726841098
210
0.0
220
0.0
230
1.0
100
AcDbArc
50
16.2090800000223
51
24.7895772500223
0
POLYLINE
5
29
330
1B
100
AcDbEntity
67
0
8
0
62
256
6
ByLayer
370
-1
48
1.0
60
0
100
AcDb3dPolyline
10
0.0
20
0.0
30
0.0
70
8
75
0
210
0.0
220
0.0
230
1.0
0
VERTEX
5
26
100
AcDbEntity
8
0
62
256
100
AcDbVertex
100
AcDb3dPolylineVertex
10
1295695.45576406
20
961790.595816458
30
0.0
70
32
0
VERTEX
5
27
100
AcDbEntity
8
0
62
256
100
AcDbVertex
100
AcDb3dPolylineVertex
10
1295602.64713293
20
961988.477532388
30
0.0
70
32
0
SEQEND
5
28
100
AcDbEntity
8
0
0
ARC
5
2A
330
1B
100
AcDbEntity
67
0
8
0
62
256
6
ByLayer
370
-1
48
1.0
60
0
100
AcDbCircle
39
0.0
10
1295270.44656583
20
961898.87335996
30
0.0
40
337.033997135778
210
0.0
220
0.0
230
1.0
100
AcDbArc
50
35.3270772499874
51
71.9972162499896
0
POLYLINE
5
2E
330
1B
100
AcDbEntity
67
0
8
0
62
256
6
ByLayer
370
-1
48
1.0
60
0
100
AcDb3dPolyline
10
0.0
20
0.0
30
0.0
70
8
75
0
210
0.0
220
0.0
230
1.0
0
VERTEX
5
2B
100
AcDbEntity
8
0
62
256
100
AcDbVertex
100
AcDb3dPolylineVertex
10
1295257.06323711
20
962242.68582484
30
0.0
70
32
0
VERTEX
5
2C
100
AcDbEntity
8
0
62
256
100
AcDbVertex
100
AcDb3dPolylineVertex
10
1295211.12821278
20
962248.980414143
30
0.0
70
32
0
SEQEND
5
2D
100
AcDbEntity
8
0
0
ARC
5
2F
330
1B
100
AcDbEntity
67
0
8
0
62
256
6
ByLayer
370
-1
48
1.0
60
0
100
AcDbCircle
39
0.0
10
1295205.58149347
20
962650.107884747
30
0.0
40
395.143299901447
210
0.0
220
0.0
230
1.0
100
AcDbArc
50
215.197495407253
51
253.497216093981
0
POLYLINE
5
33
330
1B
100
AcDbEntity
67
0
8
0
62
256
6
ByLayer
370
-1
48
1.0
60
0
100
AcDb3dPolyline
10
0.0
20
0.0
30
0.0
70
8
75
0
210
0.0
220
0.0
230
1.0
0
VERTEX
5
30
100
AcDbEntity
8
0
62
256
100
AcDbVertex
100
AcDb3dPolylineVertex
10
1294823.83969631
20
962526.790351232
30
0.0
70
32
0
VERTEX
5
31
100
AcDbEntity
8
0
62
256
100
AcDbVertex
100
AcDb3dPolylineVertex
10
1294745.55754033
20
962683.817256285
30
0.0
70
32
0
SEQEND
5
32
100
AcDbEntity
8
0
0
ARC
5
34
330
1B
100
AcDbEntity
67
0
8
0
62
256
6
ByLayer
370
-1
48
1.0
60
0
100
AcDbCircle
39
0.0
10
1294522.61371674
20
962572.673734941
30
0.0
40
249.112084839488
210
0.0
220
0.0
230
1.0
100
AcDbArc
50
26.4974952512316
51
111.115461251225
0
POLYLINE
5
38
330
1B
100
AcDbEntity
67
0
8
0
62
256
6
ByLayer
370
-1
48
1.0
60
0
100
AcDb3dPolyline
10
0.0
20
0.0
30
0.0
70
8
75
0
210
0.0
220
0.0
230
1.0
0
VERTEX
5
35
100
AcDbEntity
8
0
62
256
100
AcDbVertex
100
AcDb3dPolylineVertex
10
1294432.87144882
20
962805.059526594
30
0.0
70
32
0
VERTEX
5
36
100
AcDbEntity
8
0
62
256
100
AcDbVertex
100
AcDb3dPolylineVertex
10
1294316.18529812
20
962759.997908482
30
0.0
70
32
0
SEQEND
5
37
100
AcDbEntity
8
0
0
ARC
5
39
330
1B
100
AcDbEntity
67
0
8
0
62
256
6
ByLayer
370
-1
48
1.0
60
0
100
AcDbCircle
39
0.0
10
1294226.44303021
20
962992.383700134
30
0.0
40
249.112084839488
210
0.0
220
0.0
230
1.0
100
AcDbArc
50
211.15172925122
51
291.115461251215
0
POLYLINE
5
3D
330
1B
100
AcDbEntity
67
0
8
0
62
256
6
ByLayer
370
-1
48
1.0
60
0
100
AcDb3dPolyline
10
0.0
20
0.0
30
0.0
70
8
75
0
210
0.0
220
0.0
230
1.0
0
VERTEX
5
3A
100
AcDbEntity
8
0
62
256
100
AcDbVertex
100
AcDb3dPolylineVertex
10
1294013.2528119
20
962863.516475312
30
0.0
70
32
0
VERTEX
5
3B
100
AcDbEntity
8
0
62
256
100
AcDbVertex
100
AcDb3dPolylineVertex
10
1293845.48849872
20
963141.055706874
30
0.0
70
32
0
SEQEND
5
3C
100
AcDbEntity
8
0
0
ARC
5
3E
330
1B
100
AcDbEntity
67
0
8
0
62
256
6
ByLayer
370
-1
48
1.0
60
0
100
AcDbCircle
39
0.0
10
1294159.84570303
20
963401.133201572
30
0.0
40
402.075645705841
210
0.0
220
0.0
230
1.0
100
AcDbArc
50
151.259506501228
51
202.601729251247
0
POLYLINE
5
42
330
1B
100
AcDbEntity
67
0
8
0
62
256
6
ByLayer
370
-1
48
1.0
60
0
100
AcDb3dPolyline
10
0.0
20
0.0
30
0.0
70
8
75
0
210
0.0
220
0.0
230
1.0
0
VERTEX
5
3F
100
AcDbEntity
8
0
62
256
100
AcDbVertex
100
AcDb3dPolylineVertex
10
1293875.10292867
20
963693.335712851
30
0.0
70
32
0
VERTEX
5
40
100
AcDbEntity
8
0
62
256
100
AcDbVertex
100
AcDb3dPolylineVertex
10
1293915.75589359
20
963746.71872928
30
0.0
70
32
0
SEQEND
5
41
100
AcDbEntity
8
0
0
ARC
5
43
330
1B
100
AcDbEntity
67
0
8
0
62
256
6
ByLayer
370
-1
48
1.0
60
0
100
AcDbCircle
39
0.0
10
1292992.06577382
20
964525.550889677
30
0.0
40
1206.22693711752
210
0.0
220
0.0
230
1.0
100
AcDbArc
50
325.559506501136
51
340.086707001135
0
POLYLINE
5
47
330
1B
100
AcDbEntity
67
0
8
0
62
256
6
ByLayer
370
-1
48
1.0
60
0
100
AcDb3dPolyline
10
0.0
20
0.0
30
0.0
70
8
75
0
210
0.0
220
0.0
230
1.0
0
VERTEX
5
44
100
AcDbEntity
8
0
62
256
100
AcDbVertex
100
AcDb3dPolylineVertex
10
1294163.27575096
20
964228.8184161
30
0.0
70
32
0
VERTEX
5
45
100
AcDbEntity
8
0
62
256
100
AcDbVertex
100
AcDb3dPolylineVertex
10
1294184.98618996
20
964299.550508953
30
0.0
70
32
0
SEQEND
5
46
100
AcDbEntity
8
0
0
ARC
5
48
330
1B
100
AcDbEntity
67
0
8
0
62
256
6
ByLayer
370
-1
48
1.0
60
0
100
AcDbCircle
39
0.0
10
1289829.2177735
20
965730.648682944
30
0.0
40
4583.66236104659
210
0.0
220
0.0
230
1.0
100
AcDbArc
50
344.06170700106
51
350.196970751059
0
POLYLINE
5
4C
330
1B
100
AcDbEntity
67
0
8
0
62
256
6
ByLayer
370
-1
48
1.0
60
0
100
AcDb3dPolyline
10
0.0
20
0.0
30
0.0
70
8
75
0
210
0.0
220
0.0
230
1.0
0
VERTEX
5
49
100
AcDbEntity
8
0
62
256
100
AcDbVertex
100
AcDb3dPolylineVertex
10
1294374.27586093
20
965127.981724102
30
0.0
70
32
0
VERTEX
5
4A
100
AcDbEntity
8
0
62
256
100
AcDbVertex
100
AcDb3dPolylineVertex
10
1294418.90214381
20
965420.365596132
30
0.0
70
32
0
SEQEND
5
4B
100
AcDbEntity
8
0
0
ARC
5
4D
330
1B
100
AcDbEntity
67
0
8
0
62
256
6
ByLayer
370
-1
48
1.0
60
0
100
AcDbCircle
39
0.0
10
1296056.73506804
20
965291.752607365
30
0.0
40
1637.02227180235
210
0.0
220
0.0
230
1.0
100
AcDbArc
50
142.983338751081
51
167.121970751078
0
POLYLINE
5
51
330
1B
100
AcDbEntity
67
0
8
0
62
256
6
ByLayer
370
-1
48
1.0
60
0
100
AcDb3dPolyline
10
0.0
20
0.0
30
0.0
70
8
75
0
210
0.0
220
0.0
230
1.0
0
VERTEX
5
4E
100
AcDbEntity
8
0
62
256
100
AcDbVertex
100
AcDb3dPolylineVertex
10
1294903.28093815
20
966461.616513481
30
0.0
70
32
0
VERTEX
5
4F
100
AcDbEntity
8
0
62
256
100
AcDbVertex
100
AcDb3dPolylineVertex
10
1294990.97529801
20
966561.730217942
30
0.0
70
32
0
SEQEND
5
50
100
AcDbEntity
8
0
0
ARC
5
52
330
1B
100
AcDbEntity
67
0
8
0
62
256
6
ByLayer
370
-1
48
1.0
60
0
100
AcDbCircle
39
0.0
10
1293345.28051865
20
968162.785135202
30
0.0
40
2291.83118052329
210
0.0
220
0.0
230
1.0
100
AcDbArc
50
321.7833387511
51
332.822478751099
0
POLYLINE
5
56
330
1B
100
AcDbEntity
67
0
8
0
62
256
6
ByLayer
370
-1
48
1.0
60
0
100
AcDb3dPolyline
10
0.0
20
0.0
30
0.0
70
8
75
0
210
0.0
220
0.0
230
1.0
0
VERTEX
5
53
100
AcDbEntity
8
0
62
256
100
AcDbVertex
100
AcDb3dPolylineVertex
10
1295486.17283464
20
967333.165797045
30
0.0
70
32
0
VERTEX
5
54
100
AcDbEntity
8
0
62
256
100
AcDbVertex
100
AcDb3dPolylineVertex
10
1296229.31799014
20
968988.47535207
30
0.0
70
32
0
SEQEND
5
55
100
AcDbEntity
8
0
0
ARC
5
57
330
1B
100
AcDbEntity
67
0
8
0
62
256
6
ByLayer
370
-1
48
1.0
60
0
100
AcDbCircle
39
0.0
10
1289284.50771834
20
972172.091543672
30
0.0
40
7639.43726841098
210
0.0
220
0.0
230
1.0
100
AcDbArc
50
336.272478751096
51
337.862974501095
0
POLYLINE
5
5B
330
1B
100
AcDbEntity
67
0
8
0
62
256
6
ByLayer
370
-1
48
1.0
60
0
100
AcDb3dPolyline
10
0.0
20
0.0
30
0.0
70
8
75
0
210
0.0
220
0.0
230
1.0
0
VERTEX
5
58
100
AcDbEntity
8
0
62
256
100
AcDbVertex
100
AcDb3dPolylineVertex
10
1296405.44228351
20
969404.765634903
30
0.0
70
32
0
VERTEX
5
59
100
AcDbEntity
8
0
62
256
100
AcDbVertex
100
AcDb3dPolylineVertex
10
1296559.04989614
20
969791.019097191
30
0.0
70
32
0
SEQEND
5
5A
100
AcDbEntity
8
0
0
ARC
5
5C
330
1B
100
AcDbEntity
67
0
8
0
62
256
6
ByLayer
370
-1
48
1.0
60
0
100
AcDbCircle
39
0.0
10
1297935.94468412
20
969372.558132445
30
0.0
40
1432.39448782706
210
0.0
220
0.0
230
1.0
100
AcDbArc
50
146.063846501095
51
153.512974501096
0
POLYLINE
5
60
330
1B
100
AcDbEntity
67
0
8
0
62
256
6
ByLayer
370
-1
48
1.0
60
0
100
AcDb3dPolyline
10
0.0
20
0.0
30
0.0
70
8
75
0
210
0.0
220
0.0
230
1.0
0
VERTEX
5
5D
100
AcDbEntity
8
0
62
256
100
AcDbVertex
100
AcDb3dPolylineVertex
10
1296892.38981052
20
970363.488030058
30
0.0
70
32
0
VERTEX
5
5E
100
AcDbEntity
8
0
62
256
100
AcDbVertex
100
AcDb3dPolylineVertex
10
1297324.8391984
20
970902.575634098
30
0.0
70
32
0
SEQEND
5
5F
100
AcDbEntity
8
0
0
ENDSEC
0
SECTION
2
OBJECTS
0
DICTIONARY
5
69
330
0
100
AcDbDictionary
280
0
281
1
3
ACAD_GROUP
350
6A
3
ACAD_LAYOUT
350
6B
3
ACAD_MLINESTYLE
350
6F
0
DICTIONARY
5
6A
330
69
100
AcDbDictionary
280
0
281
1
0
DICTIONARY
5
6B
330
69
100
AcDbDictionary
280
0
281
1
3
Model
350
1F
3
Layout1
350
65
0
DICTIONARY
5
6F
330
69
100
AcDbDictionary
280
0
281
1
3
Standard
350
1A
0
LAYOUT
5
1F
330
6B
100
AcDbPlotSettings
1

2
none_device
4
ISO_A4_(210.00_x_297.00_MM)
6

40
7.5
41
20.0
42
7.5
43
20.0
44
210.0
45
297.0
46
0.0
47
0.0
48
0.0
49
0.0
140
0.0
141
0.0
142
1.0
143
1.0
70
11952
72
1
73
1
74
1
7

75
0
76
0
77
2
78
300
147
1.0
148
0.0
149
0.0
100
AcDbLayout
1
Model
70
1
71
0
10
-20.0
20
-7.5
11
277.0
21
202.5
12
0.0
22
0.0
32
0.0
14
25.7
24
19.5
34
0.0
15
231.3
25
175.5
35
0.0
146
0.0
13
0.0
23
0.0
33
0.0
16
1.0
26
0.0
36
0.0
17
0.0
27
1.0
37
0.0
76
0
330
1B
0
LAYOUT
5
65
330
6B
100
AcDbPlotSettings
1

2
none_device
4
ISO_A4_(210.00_x_297.00_MM)
6

40
7.5
41
20.0
42
7.5
43
20.0
44
210.0
45
297.0
46
0.0
47
0.0
48
0.0
49
0.0
140
0.0
141
0.0
142
1.0
143
1.0
70
688
72
1
73
1
74
1
7

75
0
76
0
77
2
78
300
147
1.0
148
0.0
149
0.0
100
AcDbLayout
1
Layout1
70
1
71
1
10
-20.0
20
-7.5
11
277.0
21
202.5
12
0.0
22
0.0
32
0.0
14
25.7
24
19.5
34
0.0
15
231.3
25
175.5
35
0.0
146
0.0
13
0.0
23
0.0
33
0.0
16
1.0
26
0.0
36
0.0
17
0.0
27
1.0
37
0.0
76
0
330
61
0
MLINESTYLE
5
1A
330
6F
100
AcDbMlineStyle
2
Standard
70
0
3

62
256
51
90.0
52
90.0
71
2
49
0.5
62
256
6
ByLayer
49
-0.5
62
256
6
ByLayer
0
ENDSEC
0
EOF
